<?xml version="1.0" encoding="utf-8"?>
<!-- Generator: Adobe Illustrator 16.0.4, SVG Export Plug-In . SVG Version: 6.00 Build 0)  -->
<!DOCTYPE svg PUBLIC "-//W3C//DTD SVG 1.1//EN" "http://www.w3.org/Graphics/SVG/1.1/DTD/svg11.dtd">
<svg version="1.1" id="Layer_1" xmlns:sketch="http://www.bohemiancoding.com/sketch/ns"
	 xmlns="http://www.w3.org/2000/svg" xmlns:xlink="http://www.w3.org/1999/xlink" x="0px" y="0px" width="194px" height="68px"
	 viewBox="0 0 194 68" enable-background="new 0 0 194 68" xml:space="preserve">
<g id="Page-1_1_" sketch:type="MSPage">
	<g id="Nav_1_" transform="translate(-620.000000, -2333.000000)" sketch:type="MSArtboardGroup">
		<g id="Sticky-menu-hover-state-_1_" transform="translate(-3.000000, 2258.000000)" sketch:type="MSLayerGroup">
			<g id="sticky-hover-state_1_" transform="translate(0.000000, 53.631583)" sketch:type="MSShapeGroup">
				<g id="pixel-logo_1_" transform="translate(623.000000, 21.000000)">
					<g id="pixel_1_" transform="translate(0.524194, 0.071088)">
						<path id="Fill-1_1_" fill="#3E466E" d="M137.38,29.213h6.162v14.78h3.848v-14.78h6.162v-3.826H137.38V29.213"/>
						<path id="Fill-2_1_" fill="#3E466E" d="M166.56,34.461l-6.496-9.074h-2.936v18.606h3.848v-10.53l4.559,6.245h2.068
							l4.559-6.245v10.53h3.85V25.387h-2.936L166.56,34.461"/>
						<path id="Fill-3_1_" fill="#3E466E" d="M183.423,40.166V25.387h-3.85v18.606h13.486v-3.827H183.423"/>
						<path id="Fill-4_1_" fill="#3E466E" d="M130.359,32.733h-8.064v-7.346h-3.848v18.606h3.848V36.56h8.064v7.434h3.85V25.387
							h-3.85V32.733"/>
						<path id="Fill-5_1_" fill="#3E466E" d="M17.486,25.387h3.85v18.607h-3.85V25.387z"/>
						<path id="Fill-6_1_" fill="#3E466E" d="M41.604,25.387h-4.293l-4.12,5.965l-4.104-5.965h-4.314l6.26,9.085l-6.55,9.521h4.311
							l4.397-6.383l4.414,6.383h4.29l-6.55-9.521L41.604,25.387"/>
						<path id="Fill-7_1_" fill="#3E466E" d="M65.636,40.166V25.387h-3.85v18.606h12.927v-3.827H65.636"/>
						<path id="Fill-8_1_" fill="#3E466E" d="M8.55,25.393v-0.006H0.099v18.606h3.849v-5.815h2.095v-0.006H8.55v-0.008
							c3.469-0.07,6.26-2.9,6.26-6.385C14.81,28.293,12.019,25.465,8.55,25.393L8.55,25.393z M8.417,34.313h-4.47v-5.068h4.47
							c1.399,0,2.533,1.136,2.533,2.535C10.95,33.178,9.817,34.313,8.417,34.313L8.417,34.313z"/>
						<path id="Fill-9_1_" fill="#3E466E" d="M48.891,36.56h8.745v-3.827h-8.745v-3.52h9.401v-3.826H45.041v18.606h13.447v-3.827
							h-9.598V36.56"/>
						<path id="Fill-10_1_" fill="#FDC75A" d="M105.245,20.999l3.082,1.778l1.877-3.252l-3.08-1.778L105.245,20.999"/>
						<path id="Fill-11_1_" fill="#FDC75A" d="M106.03,17.116l-3.082-1.779l-1.877,3.254l3.082,1.777L106.03,17.116"/>
						<path id="Fill-12_1_" fill="#FDC75A" d="M88.01,48.331l-3.082-1.779l-4.099,7.101l3.081,1.779L88.01,48.331"/>
						<path id="Fill-13_1_" fill="#FDC75A" d="M85.002,56.063l3.082,1.778l4.099-7.101l-3.081-1.777L85.002,56.063"/>
						<path id="Fill-14_1_" fill="#EF6E30" d="M78.013,58.529c-0.529,0.917-0.213,2.095,0.704,2.624l3.928,2.269
							c0.917,0.529,2.095,0.214,2.624-0.704l1.852-3.207l-7.256-4.188L78.013,58.529"/>
						<path id="Fill-15_1_" fill="#FFFFFF" d="M111.544,12.045l-2.77-1.6l-4.447,3.461l6.453,3.725L111.544,12.045"/>
						<path id="Fill-16_1_" fill="#FEE3AC" d="M108.775,10.446l-4.447,3.461l6.453,3.725l0.764-5.586L108.775,10.446"/>
						<path id="Fill-17_1_" fill="#3E466E" d="M75.405,12.487l0.067-0.002c0.347-0.037,0.598-0.348,0.562-0.694
							c-0.486-4.595,0.287-7.728,2.178-8.819c2.438-1.408,6.522,0.254,10.659,4.338c0.248,0.244,0.647,0.242,0.892-0.006
							c0.246-0.248,0.243-0.648-0.006-0.893c-4.627-4.568-9.179-6.264-12.175-4.532c-2.383,1.376-3.353,4.849-2.803,10.045
							C74.813,12.247,75.086,12.487,75.405,12.487"/>
						<path id="Fill-18_1_" fill="#3E466E" d="M117.751,60.677c-0.348-0.021-0.648,0.237-0.672,0.585
							c-0.182,2.601-0.949,4.309-2.281,5.078c-2.83,1.634-8.031-0.949-12.943-6.426c-0.232-0.26-0.633-0.282-0.891-0.049
							c-0.26,0.232-0.281,0.631-0.049,0.891c4.211,4.695,8.598,7.322,11.945,7.322c0.947,0,1.814-0.211,2.566-0.646
							c1.719-0.993,2.697-3.039,2.91-6.083C118.363,61.002,118.099,60.702,117.751,60.677"/>
						<path id="Fill-19_1_" fill="#69C5C7" d="M78.425,5.35l0.108-0.143L78.425,5.35"/>
						<path id="Fill-20_1_" fill="#69C5C7" d="M77.886,6.498l0.066-0.205L77.886,6.498"/>
						<path id="Fill-21_1_" fill="#69C5C7" d="M78.25,5.622l0.123-0.199L78.25,5.622"/>
						<path id="Fill-22_1_" fill="#69C5C7" d="M78.778,4.95l0.133-0.113L78.778,4.95"/>
						<path id="Fill-23_1_" fill="#69C5C7" d="M78.595,5.135l0.115-0.121L78.595,5.135"/>
						<path id="Fill-24_1_" fill="#69C5C7" d="M112.95,49.098c0.148,0.426,0.293,0.848,0.43,1.264
							C113.243,49.946,113.099,49.524,112.95,49.098"/>
						<path id="Fill-25_1_" fill="#69C5C7" d="M77.797,6.831l0.057-0.225L77.797,6.831"/>
						<path id="Fill-26_1_" fill="#69C5C7" d="M78.101,5.915c0.04-0.09,0.083-0.176,0.128-0.258
							C78.184,5.739,78.141,5.825,78.101,5.915"/>
						<path id="Fill-27_1_" fill="#69C5C7" d="M77.986,6.195l0.085-0.212L77.986,6.195"/>
						<path id="Fill-28_1_" fill="#69C5C7" d="M113.013,64.944l-0.186,0.023L113.013,64.944"/>
						<path id="Fill-29_1_" fill="#69C5C7" d="M112.458,64.982c-0.092-0.003-0.184-0.009-0.279-0.019
							C112.275,64.973,112.366,64.98,112.458,64.982"/>
						<path id="Fill-30_1_" fill="#69C5C7" d="M112.747,64.975c-0.092,0.006-0.184,0.009-0.279,0.007
							C112.564,64.984,112.655,64.981,112.747,64.975"/>
						<path id="Fill-31_1_" fill="#69C5C7" d="M112.087,64.952l-0.211-0.031L112.087,64.952"/>
						<path id="Fill-32_1_" fill="#69C5C7" d="M113.271,64.887l-0.162,0.039L113.271,64.887"/>
						<path id="Fill-33_1_" fill="#69C5C7" d="M113.825,64.663l-0.223,0.11L113.825,64.663"/>
						<path id="Fill-34_1_" fill="#69C5C7" d="M113.38,50.362c0.135,0.414,0.266,0.822,0.389,1.226
							C113.646,51.184,113.515,50.776,113.38,50.362"/>
						<path id="Fill-35_1_" fill="#69C5C7" d="M113.527,64.803l-0.164,0.059L113.527,64.803"/>
						<path id="Fill-36_1_" fill="#69C5C7" d="M77.662,10.436c-0.031-0.338-0.053-0.666-0.064-0.98
							C77.61,9.77,77.631,10.098,77.662,10.436"/>
						<path id="Fill-37_1_" fill="#69C5C7" d="M78.534,15.214c-0.051-0.202-0.1-0.401-0.147-0.598
							C78.435,14.813,78.484,15.012,78.534,15.214"/>
						<path id="Fill-38_1_" fill="#69C5C7" d="M77.718,7.217c0.018-0.096,0.035-0.191,0.056-0.284
							C77.753,7.026,77.736,7.122,77.718,7.217"/>
						<path id="Fill-39_1_" fill="#69C5C7" d="M79.11,17.293c-0.21-0.703-0.399-1.387-0.567-2.047
							C78.71,15.907,78.9,16.59,79.11,17.293"/>
						<path id="Fill-40_1_" fill="#69C5C7" d="M78.226,13.913c-0.137-0.618-0.251-1.213-0.344-1.783
							C77.975,12.699,78.089,13.294,78.226,13.913"/>
						<path id="Fill-41_1_" fill="#69C5C7" d="M78.368,14.538c-0.043-0.188-0.086-0.372-0.127-0.555
							C78.282,14.165,78.325,14.35,78.368,14.538"/>
						<path id="Fill-42_1_" fill="#A0DAE0" d="M100.831,54.401l0.016-0.01c0.396-0.217,0.891-0.129,1.184,0.215
							c0.926,1.084,1.84,2.096,2.738,3.021c5.104,5.249,7.617,5.642,8.096,5.365c0.477-0.276,1.393-2.649-0.6-9.692
							c-0.66-2.334-1.551-4.869-2.641-7.533l-1.119,0.646c0.055,0.127,0.107,0.256,0.158,0.381c0.066,0.158,0.129,0.314,0.191,0.472
							c0.127,0.311,0.246,0.615,0.363,0.916c0.232,0.601,0.447,1.18,0.641,1.735c0.736,2.096,1.197,3.854,1.344,5.161
							c0.027,0.25,0.045,0.485,0.049,0.701c0.002,0.149,0,0.291-0.008,0.424c-0.008,0.132-0.023,0.257-0.043,0.371
							c-0.08,0.457-0.254,0.774-0.527,0.935l-0.004,0.002l-0.004,0.002l-0.102,0.049l-0.037,0.012l-0.076,0.023l-0.049,0.01
							l-0.072,0.013l-0.057,0.003l-0.066,0.004l-0.006-0.001l-0.053-0.002l-0.082-0.006l-0.059-0.008l-0.084-0.015l-0.062-0.014
							l-0.086-0.021l-0.068-0.021l-0.086-0.028l-0.072-0.027l-0.09-0.037l-0.076-0.032l-0.092-0.044l-0.078-0.038l-0.1-0.052
							l-0.08-0.044l-0.102-0.059l-0.082-0.05l-0.107-0.066l-0.084-0.055l-0.111-0.076l-0.084-0.057l-0.119-0.086l-0.084-0.061
							l-0.131-0.1l-0.076-0.059l-0.158-0.128l-0.055-0.044l-0.221-0.183l-0.035-0.03l-0.189-0.166l-0.078-0.07l-0.152-0.137
							l-0.092-0.084l-0.143-0.135l-0.1-0.094l-0.141-0.135l-0.107-0.105l-0.139-0.137l-0.109-0.111l-0.141-0.142l-0.113-0.116
							l-0.141-0.148l-0.117-0.12l-0.145-0.155l-0.115-0.125l-0.148-0.161l-0.117-0.129l-0.152-0.169l-0.119-0.133l-0.156-0.178
							l-0.117-0.132l-0.162-0.188l-0.117-0.133l-0.17-0.202l-0.111-0.129l-0.283-0.341c-0.094-0.112-0.189-0.227-0.283-0.344
							l-0.006-0.006c-0.098-0.12-0.195-0.24-0.295-0.363l-0.076-0.096c-0.072-0.092-0.146-0.183-0.221-0.275l-0.104-0.132
							l-0.193-0.247l-0.119-0.151l-0.186-0.237l-0.127-0.166l-0.156-0.205l-4.258,2.457c0.904,1.174,1.799,2.279,2.678,3.31
							C100.173,55.393,100.302,54.69,100.831,54.401"/>
						<path id="Fill-43_1_" fill="#A0DAE0" d="M83.263,13.391c-0.027-0.247-0.045-0.478-0.049-0.691l-0.001-0.227
							c0.015-0.774,0.203-1.294,0.582-1.513l0.008-0.004L83.9,10.91l0.044-0.014l0.07-0.022l0.054-0.01l0.068-0.012l0.059-0.004
							l0.062-0.002h0.007l0.055,0.002l0.08,0.006l0.061,0.008l0.081,0.014l0.065,0.015l0.083,0.021l0.069,0.021l0.087,0.029
							l0.071,0.027l0.09,0.035l0.075,0.032l0.096,0.045l0.077,0.038l0.098,0.052l0.079,0.044l0.104,0.059l0.081,0.049l0.109,0.068
							l0.081,0.053l0.116,0.078l0.08,0.055l0.124,0.09l0.077,0.057l0.139,0.105l0.069,0.053l0.172,0.137l0.042,0.034l0.223,0.187
							l0.225,0.195l0.063,0.057l0.167,0.15l0.081,0.075l0.154,0.144l0.09,0.085l0.152,0.146l0.094,0.093l0.152,0.149l0.098,0.099
							l0.151,0.154l0.104,0.106l0.153,0.159l0.104,0.109l0.155,0.166l0.107,0.114l0.159,0.175l0.105,0.115l0.166,0.184l0.104,0.117
							l0.171,0.194l0.104,0.118l0.18,0.207l0.097,0.113l0.198,0.232l0.084,0.099c0.076,0.089,0.151,0.181,0.229,0.272l0.058,0.069
							c0.194,0.233,0.391,0.474,0.59,0.72l0.04,0.052c0.086,0.106,0.171,0.212,0.256,0.319l0.082,0.104
							c0.072,0.092,0.145,0.183,0.217,0.275l0.103,0.133l0.2,0.256l0.112,0.148l0.192,0.249l0.022,0.03l1.12-0.646
							c-1.779-2.299-3.545-4.358-5.25-6.113c-5.103-5.248-7.617-5.64-8.095-5.363c-0.478,0.275-1.396,2.648,0.599,9.691
							c0.325,1.148,0.71,2.348,1.143,3.587c0.152,0.434-0.022,0.915-0.42,1.144l-0.02,0.012c-0.517,0.299-1.179,0.052-1.377-0.512
							c-0.177-0.505-0.346-1.002-0.505-1.49c0.597,1.832,1.322,3.787,2.166,5.834l4.258-2.458
							C84.444,18.432,83.485,15.383,83.263,13.391"/>
						<path id="Fill-44_1_" fill="#69C5C7" d="M79.558,18.731c-0.075-0.232-0.148-0.462-0.22-0.689
							C79.409,18.269,79.483,18.498,79.558,18.731"/>
						<path id="Fill-45_1_" fill="#69C5C7" d="M79.322,17.989c-0.071-0.229-0.142-0.456-0.209-0.681
							C79.181,17.533,79.251,17.76,79.322,17.989"/>
						<path id="Fill-46_1_" fill="#69C5C7" d="M77.589,8.893c0-0.107,0.001-0.214,0.004-0.318
							C77.59,8.679,77.589,8.786,77.589,8.893"/>
						<path id="Fill-47_1_" fill="#69C5C7" d="M77.597,8.453c0.004-0.104,0.009-0.206,0.016-0.306
							C77.606,8.247,77.601,8.349,77.597,8.453"/>
						<path id="Fill-48_1_" fill="#69C5C7" d="M77.618,8.041c0.009-0.12,0.02-0.238,0.034-0.353
							C77.638,7.803,77.627,7.921,77.618,8.041"/>
						<path id="Fill-49_1_" fill="#69C5C7" d="M77.655,7.655c0.015-0.129,0.032-0.255,0.052-0.377
							C77.688,7.4,77.67,7.526,77.655,7.655"/>
						<path id="Fill-50_1_" fill="#69C5C7" d="M77.596,9.39c-0.004-0.13-0.007-0.257-0.007-0.382
							C77.589,9.133,77.592,9.26,77.596,9.39"/>
						<path id="Fill-51_1_" fill="#69C5C7" d="M77.715,10.944c-0.017-0.146-0.032-0.293-0.046-0.437
							C77.683,10.651,77.698,10.797,77.715,10.944"/>
						<path id="Fill-52_1_" fill="#69C5C7" d="M77.784,11.484c-0.021-0.146-0.038-0.288-0.056-0.431
							C77.746,11.196,77.764,11.338,77.784,11.484"/>
						<path id="Fill-53_1_" fill="#69C5C7" d="M111.769,64.901l-0.213-0.048L111.769,64.901"/>
						<path id="Fill-54_1_" fill="#69C5C7" d="M77.873,12.079c-0.026-0.166-0.051-0.328-0.075-0.49
							C77.822,11.75,77.847,11.913,77.873,12.079"/>
						<path id="Fill-55_1_" fill="#69C5C7" d="M103.146,58.719c-0.15-0.156-0.299-0.314-0.451-0.475
							C102.847,58.405,102.995,58.563,103.146,58.719"/>
						<path id="Fill-56_1_" fill="#69C5C7" d="M102.652,58.198c-0.506-0.541-1.021-1.112-1.543-1.711
							C101.63,57.085,102.146,57.657,102.652,58.198"/>
						<path id="Fill-57_1_" fill="#69C5C7" d="M106.089,61.532c-0.129-0.111-0.26-0.225-0.391-0.342
							C105.829,61.307,105.96,61.42,106.089,61.532"/>
						<path id="Fill-58_1_" fill="#69C5C7" d="M105.613,61.114c-0.129-0.117-0.26-0.236-0.393-0.356
							C105.353,60.877,105.484,60.997,105.613,61.114"/>
						<path id="Fill-59_1_" fill="#69C5C7" d="M105.152,60.694c-0.473-0.438-0.957-0.905-1.447-1.402
							C104.195,59.789,104.679,60.256,105.152,60.694"/>
						<path id="Fill-60_1_" fill="#69C5C7" d="M103.657,59.246c-0.146-0.149-0.295-0.301-0.443-0.456
							C103.363,58.945,103.511,59.096,103.657,59.246"/>
						<path id="Fill-61_1_" fill="#69C5C7" d="M101.072,56.447c-0.158-0.183-0.318-0.368-0.477-0.556
							C100.753,56.079,100.913,56.264,101.072,56.447"/>
						<path id="Fill-62_1_" fill="#69C5C7" d="M84.197,5.721c-2.098-1.33-3.833-1.753-5.016-1.071l-0.209,0.139l0.209-0.138
							C80.364,3.968,82.099,4.391,84.197,5.721"/>
						<path id="Fill-63_1_" fill="#69C5C7" d="M111.45,64.828l-0.244-0.071L111.45,64.828"/>
						<path id="Fill-64_1_" fill="#69C5C7" d="M112.722,48.453c-0.426-1.18-0.898-2.401-1.416-3.657
							C111.823,46.051,112.296,47.273,112.722,48.453"/>
						<path id="Fill-65_1_" fill="#69C5C7" d="M111.124,64.731c-0.113-0.036-0.227-0.076-0.342-0.12
							C110.898,64.655,111.011,64.695,111.124,64.731"/>
						<path id="Fill-66_1_" fill="#69C5C7" d="M109.964,64.246c-0.088-0.044-0.178-0.09-0.268-0.139
							C109.786,64.156,109.876,64.202,109.964,64.246"/>
						<path id="Fill-67_1_" fill="#69C5C7" d="M110.341,64.426c-0.088-0.04-0.176-0.082-0.266-0.125
							C110.165,64.344,110.253,64.386,110.341,64.426"/>
						<path id="Fill-68_1_" fill="#69C5C7" d="M110.779,64.61c-0.113-0.043-0.227-0.092-0.344-0.143
							C110.552,64.518,110.665,64.567,110.779,64.61"/>
						<path id="Fill-69_1_" fill="#69C5C7" d="M109.591,64.051c-0.105-0.059-0.209-0.117-0.314-0.179
							C109.382,63.934,109.486,63.993,109.591,64.051"/>
						<path id="Fill-70_1_" fill="#69C5C7" d="M107.056,62.331c-0.295-0.233-0.598-0.481-0.902-0.744
							C106.458,61.85,106.761,62.098,107.056,62.331"/>
						<path id="Fill-71_1_" fill="#69C5C7" d="M107.898,62.969c-0.107-0.078-0.219-0.16-0.328-0.242
							C107.679,62.809,107.79,62.891,107.898,62.969"/>
						<path id="Fill-72_1_" fill="#69C5C7" d="M109.214,63.836c-0.262-0.154-0.529-0.325-0.801-0.508
							C108.685,63.511,108.952,63.682,109.214,63.836"/>
						<path id="Fill-73_1_" fill="#69C5C7" d="M107.478,62.659c-0.131-0.1-0.266-0.202-0.398-0.309
							C107.212,62.456,107.347,62.559,107.478,62.659"/>
						<path id="Fill-74_1_" fill="#69C5C7" d="M108.327,63.27c-0.107-0.073-0.217-0.148-0.326-0.227
							C108.111,63.122,108.22,63.197,108.327,63.27"/>
						<path id="Fill-75_1_" fill="#3E466E" d="M100.595,55.891c0.158,0.188,0.318,0.373,0.477,0.556l0.037,0.04
							c0.521,0.599,1.037,1.17,1.543,1.711l0.043,0.047c0.152,0.16,0.301,0.318,0.451,0.475l0.068,0.07
							c0.148,0.155,0.297,0.307,0.443,0.456l0.047,0.046c0.49,0.497,0.975,0.965,1.447,1.402l0.068,0.063
							c0.133,0.12,0.264,0.239,0.393,0.356l0.086,0.076c0.131,0.117,0.262,0.23,0.391,0.342l0.064,0.056
							c0.305,0.263,0.607,0.511,0.902,0.744l0.023,0.019c0.133,0.106,0.268,0.209,0.398,0.309l0.092,0.068
							c0.109,0.082,0.221,0.164,0.328,0.242l0.104,0.074c0.109,0.078,0.219,0.153,0.326,0.227l0.086,0.059
							c0.271,0.183,0.539,0.354,0.801,0.508l0.062,0.036c0.105,0.062,0.209,0.12,0.314,0.179l0.105,0.056
							c0.09,0.049,0.18,0.095,0.268,0.139l0.111,0.056c0.09,0.043,0.178,0.085,0.266,0.125l0.094,0.041
							c0.117,0.051,0.23,0.1,0.344,0.143l0.004,0.001c0.115,0.044,0.229,0.084,0.342,0.12l0.082,0.025l0.244,0.071l0.105,0.025
							l0.213,0.048l0.107,0.02l0.211,0.031l0.092,0.012c0.096,0.01,0.188,0.016,0.279,0.019h0.01
							c0.096,0.002,0.188-0.001,0.279-0.007l0.08-0.008l0.186-0.023l0.096-0.018l0.162-0.039l0.092-0.025l0.164-0.059l0.076-0.03
							l0.223-0.11l0.002-0.002c1.965-1.135,2.051-5.119,0.602-10.741c-0.193-0.749-0.414-1.528-0.66-2.332
							c-0.123-0.403-0.254-0.812-0.389-1.226c-0.137-0.416-0.281-0.838-0.43-1.264c-0.074-0.215-0.152-0.43-0.229-0.646
							c-0.426-1.18-0.898-2.401-1.416-3.657l1.004-0.579c0.266-0.154,0.43-0.438,0.43-0.745v-17.65c0-0.307-0.164-0.59-0.43-0.744
							l-2.312-1.334l2.48-4.296l1.854-13.563c0.062-0.451-0.166-0.824-0.496-1.017c-0.334-0.192-0.771-0.2-1.131,0.078l-10.859,8.45
							l-2.441,4.23l-2.379-1.373c-0.266-0.153-0.594-0.153-0.86,0l-0.994,0.574c-4.033-5.242-7.894-9.152-10.974-11.105
							c-2.098-1.33-3.833-1.753-5.016-1.07l-0.209,0.138L78.91,4.836L78.778,4.95L78.71,5.014l-0.115,0.121l-0.062,0.072
							L78.425,5.35l-0.052,0.072L78.25,5.622l-0.021,0.035c-0.045,0.082-0.088,0.168-0.128,0.258l-0.03,0.068l-0.085,0.212
							l-0.033,0.098l-0.066,0.205l-0.032,0.108l-0.057,0.225l-0.023,0.103c-0.021,0.093-0.038,0.188-0.056,0.284l-0.011,0.061
							c-0.02,0.122-0.037,0.248-0.052,0.377l-0.003,0.034c-0.015,0.114-0.025,0.232-0.034,0.353l-0.006,0.105
							c-0.007,0.1-0.012,0.202-0.016,0.306l-0.004,0.122c-0.003,0.104-0.004,0.211-0.004,0.318v0.115
							c0,0.125,0.003,0.252,0.007,0.382l0.002,0.065c0.012,0.314,0.033,0.643,0.064,0.98l0.007,0.071
							c0.014,0.144,0.029,0.29,0.046,0.437l0.014,0.109c0.018,0.143,0.035,0.285,0.056,0.431l0.014,0.104
							c0.024,0.162,0.049,0.324,0.075,0.49l0.009,0.051c0.093,0.57,0.207,1.165,0.344,1.783l0.016,0.07
							c0.041,0.183,0.084,0.367,0.127,0.555l0.019,0.079c0.048,0.196,0.097,0.396,0.147,0.598l0.008,0.032
							c0.168,0.66,0.357,1.344,0.567,2.047l0.004,0.015c0.067,0.225,0.138,0.452,0.209,0.681l0.016,0.053
							c0.071,0.228,0.145,0.457,0.22,0.689l0.007,0.021c0.159,0.488,0.328,0.986,0.505,1.492c0.198,0.562,0.86,0.809,1.377,0.51
							l0.02-0.012c0.397-0.229,0.572-0.71,0.42-1.144c-0.433-1.239-0.817-2.438-1.143-3.587c-1.994-7.043-1.076-9.416-0.599-9.691
							c0.478-0.276,2.992,0.115,8.095,5.363c1.705,1.755,3.471,3.814,5.25,6.113l-1.12,0.646l-0.022-0.03l-0.192-0.249l-0.112-0.148
							l-0.2-0.256l-0.103-0.133c-0.072-0.093-0.145-0.184-0.217-0.275l-0.082-0.104c-0.085-0.107-0.17-0.213-0.256-0.319
							l-0.04-0.052c-0.199-0.246-0.396-0.486-0.59-0.72l-0.058-0.069c-0.077-0.092-0.152-0.184-0.229-0.272l-0.084-0.099
							l-0.198-0.232l-0.097-0.113l-0.18-0.207l-0.104-0.118l-0.171-0.194l-0.104-0.117l-0.166-0.184l-0.105-0.115L88.9,14.261
							l-0.107-0.114l-0.155-0.166l-0.104-0.109l-0.153-0.159l-0.104-0.106l-0.151-0.154l-0.098-0.099l-0.152-0.149l-0.094-0.093
							l-0.152-0.146l-0.09-0.085l-0.154-0.144l-0.081-0.075l-0.167-0.15l-0.063-0.057l-0.225-0.195l-0.223-0.187l-0.042-0.034
							l-0.172-0.137l-0.069-0.053l-0.139-0.105l-0.077-0.057l-0.124-0.09l-0.08-0.055l-0.116-0.078l-0.081-0.053l-0.109-0.068
							l-0.081-0.049l-0.104-0.059l-0.079-0.044l-0.098-0.052l-0.077-0.038l-0.096-0.045l-0.075-0.032l-0.09-0.035l-0.071-0.027
							l-0.087-0.029l-0.069-0.021l-0.083-0.021l-0.065-0.015l-0.081-0.014l-0.061-0.008l-0.08-0.006l-0.055-0.002h-0.007
							l-0.062,0.002l-0.059,0.004l-0.068,0.012l-0.054,0.01l-0.07,0.022L83.9,10.91l-0.097,0.047l-0.007,0.003l-0.001,0.001
							l-0.001,0.001c-0.378,0.218-0.566,0.737-0.581,1.512l0.001,0.227c0.004,0.214,0.021,0.444,0.049,0.691
							c0.222,1.992,1.181,5.041,2.726,8.737l-5.108,2.948c-0.266,0.154-0.43,0.438-0.43,0.744v17.65c0,0.308,0.164,0.591,0.43,0.745
							l2.379,1.372l-6.915,11.977c-1.062,1.841-0.432,4.195,1.409,5.259l3.928,2.267c1.84,1.062,4.194,0.432,5.257-1.408
							l6.915-11.977l2.312,1.334c0.267,0.154,0.595,0.154,0.86,0l5.117-2.953l0.156,0.205l0.127,0.166l0.186,0.237l0.119,0.151
							l0.193,0.247l0.104,0.132c0.074,0.093,0.148,0.184,0.221,0.275l0.076,0.096c0.1,0.123,0.197,0.243,0.295,0.363l0.006,0.006
							c0.094,0.117,0.189,0.231,0.283,0.344l0.283,0.341l0.111,0.129l0.17,0.202l0.117,0.133l0.162,0.188l0.117,0.132l0.156,0.178
							l0.119,0.133l0.152,0.169l0.117,0.129l0.148,0.161l0.115,0.125l0.145,0.155l0.117,0.12l0.141,0.148l0.113,0.116l0.141,0.142
							l0.109,0.111l0.139,0.137l0.107,0.105l0.141,0.135l0.1,0.094l0.143,0.135l0.092,0.084l0.152,0.137l0.078,0.07l0.189,0.166
							l0.035,0.03l0.221,0.183l0.055,0.044l0.158,0.128l0.076,0.059l0.131,0.1l0.084,0.061l0.119,0.086l0.084,0.057l0.111,0.076
							l0.084,0.055l0.107,0.066l0.082,0.05l0.102,0.059l0.08,0.044l0.1,0.052l0.078,0.038l0.092,0.044l0.076,0.032l0.09,0.037
							l0.072,0.027l0.086,0.028l0.068,0.021l0.086,0.021l0.062,0.014l0.084,0.015l0.059,0.008l0.082,0.006l0.053,0.002l0.006,0.001
							l0.066-0.004l0.057-0.003l0.072-0.013l0.049-0.01l0.076-0.023l0.037-0.012l0.102-0.049l0.004-0.002l0.004-0.002l0.002-0.002
							c0.271-0.16,0.445-0.477,0.525-0.933c0.02-0.114,0.035-0.239,0.043-0.371c0.008-0.133,0.01-0.274,0.008-0.424
							c-0.004-0.216-0.021-0.451-0.049-0.701c-0.146-1.307-0.607-3.065-1.344-5.161c-0.193-0.556-0.408-1.135-0.641-1.735
							c-0.117-0.301-0.236-0.605-0.363-0.916c-0.062-0.157-0.125-0.313-0.191-0.472c-0.051-0.125-0.104-0.254-0.158-0.381
							l1.119-0.646c1.09,2.664,1.98,5.199,2.641,7.533c1.992,7.043,1.076,9.416,0.6,9.692c-0.479,0.276-2.992-0.116-8.096-5.365
							c-0.902-0.929-1.824-1.947-2.754-3.039c-0.281-0.33-0.756-0.421-1.137-0.214c-0.535,0.292-0.688,0.994-0.316,1.479
							l0.002,0.004L100.595,55.891L100.595,55.891z M108.327,22.778l-3.082-1.778l1.879-3.252l3.08,1.778L108.327,22.778
							L108.327,22.778z M108.775,10.446l2.77,1.6l-0.764,5.586l-6.453-3.725L108.775,10.446L108.775,10.446z M102.948,15.336
							l3.082,1.779l-1.877,3.252l-3.082-1.777L102.948,15.336L102.948,15.336z M86.438,19.87c-0.99-2.555-1.496-4.32-1.743-5.525
							c1.37,1.319,3.03,3.279,4.858,5.725l-2.463,1.424C86.861,20.938,86.642,20.397,86.438,19.87L86.438,19.87z M84.928,46.552
							l3.082,1.779l-4.1,7.101l-3.081-1.779L84.928,46.552L84.928,46.552z M85.269,62.717c-0.529,0.918-1.707,1.233-2.624,0.704
							l-3.928-2.269c-0.917-0.529-1.233-1.707-0.704-2.624l1.852-3.207l7.256,4.188L85.269,62.717L85.269,62.717z M88.084,57.841
							l-3.082-1.778l4.1-7.1l3.081,1.777L88.084,57.841L88.084,57.841z M103.243,49.45l2.479-1.431
							c1.217,2.814,2.098,5.245,2.576,7.116c-0.926-0.809-2.236-2.146-4.023-4.368C103.937,50.345,103.591,49.904,103.243,49.45
							L103.243,49.45z M96.595,48.77l-12.231-7.062v-3.306l16.081-9.285l-3.85-2.224l-12.231,7.062v-6.372l12.231-7.062l12.23,7.062
							v3.307l-16.081,9.285l3.851,2.223l12.23-7.062v6.372L96.595,48.77L96.595,48.77z"/>
						<path id="Fill-76_1_" fill="#FFFFFF" d="M84.916,10.989l-0.071-0.027L84.916,10.989"/>
						<path id="Fill-77_1_" fill="#FFFFFF" d="M85.254,11.139l-0.077-0.038L85.254,11.139"/>
						<path id="Fill-78_1_" fill="#FFFFFF" d="M84.606,10.89l-0.065-0.015L84.606,10.89"/>
						<path id="Fill-79_1_" fill="#FFFFFF" d="M85.081,11.056l-0.075-0.032L85.081,11.056"/>
						<path id="Fill-80_1_" fill="#FFFFFF" d="M85.431,11.235l-0.079-0.044L85.431,11.235"/>
						<path id="Fill-81_1_" fill="#FFFFFF" d="M84.758,10.932l-0.069-0.021L84.758,10.932"/>
						<path id="Fill-82_1_" fill="#FFFFFF" d="M91.842,17.76l-0.103-0.133L91.842,17.76"/>
						<path id="Fill-83_1_" fill="#FFFFFF" d="M89.71,15.165l-0.104-0.118L89.71,15.165"/>
						<path id="Fill-84_1_" fill="#FFFFFF" d="M85.615,11.342l-0.081-0.049L85.615,11.342"/>
						<path id="Fill-85_1_" fill="#FFFFFF" d="M89.435,14.852l-0.104-0.117L89.435,14.852"/>
						<path id="Fill-86_1_" fill="#FFFFFF" d="M90.269,15.816l-0.084-0.099L90.269,15.816"/>
						<path id="Fill-87_1_" fill="#FFFFFF" d="M89.164,14.551l-0.105-0.115L89.164,14.551"/>
						<path id="Fill-88_1_" fill="#FFFFFF" d="M91.185,16.929l-0.04-0.052L91.185,16.929"/>
						<path id="Fill-89_1_" fill="#FFFFFF" d="M90.555,16.158l-0.058-0.069L90.555,16.158"/>
						<path id="Fill-90_1_" fill="#FFFFFF" d="M92.155,18.165l-0.112-0.148L92.155,18.165"/>
						<path id="Fill-91_1_" fill="#FFFFFF" d="M92.369,18.444L92.369,18.444l-0.022-0.03L92.369,18.444"/>
						<path id="Fill-92_1_" fill="#FFFFFF" d="M91.523,17.352l-0.082-0.104L91.523,17.352"/>
						<path id="Fill-93_1_" fill="#FFFFFF" d="M88.9,14.261l-0.107-0.114L88.9,14.261"/>
						<path id="Fill-94_1_" fill="#FFFFFF" d="M89.987,15.485l-0.097-0.113L89.987,15.485"/>
						<path id="Fill-95_1_" fill="#FFFFFF" d="M88.637,13.981l-0.104-0.109L88.637,13.981"/>
						<path id="Fill-96_1_" fill="#FFFFFF" d="M86.203,11.743l-0.077-0.057L86.203,11.743"/>
						<path id="Fill-97_1_" fill="#FFFFFF" d="M85.806,11.463l-0.081-0.053L85.806,11.463"/>
						<path id="Fill-98_1_" fill="#FFFFFF" d="M86.625,12.072l-0.042-0.034L86.625,12.072"/>
						<path id="Fill-99_1_" fill="#FFFFFF" d="M86.002,11.596l-0.08-0.055L86.002,11.596"/>
						<path id="Fill-100_1_" fill="#FFFFFF" d="M86.411,11.901l-0.069-0.053L86.411,11.901"/>
						<path id="Fill-101_1_" fill="#FFFFFF" d="M87.874,13.204l-0.094-0.093L87.874,13.204"/>
						<path id="Fill-102_1_" fill="#FFFFFF" d="M87.628,12.964l-0.09-0.085L87.628,12.964"/>
						<path id="Fill-103_1_" fill="#FFFFFF" d="M87.384,12.736l-0.081-0.075L87.384,12.736"/>
						<path id="Fill-104_1_" fill="#FFFFFF" d="M87.136,12.51l-0.063-0.057L87.136,12.51"/>
						<path id="Fill-105_1_" fill="#FFFFFF" d="M-0.108,0.516"/>
						<path id="Fill-106_1_" fill="#FFFFFF" d="M88.379,13.712l-0.104-0.106L88.379,13.712"/>
						<path id="Fill-107_1_" fill="#FFFFFF" d="M109.212,57.331l0.078,0.038L109.212,57.331"/>
						<path id="Fill-108_1_" fill="#FFFFFF" d="M109.032,57.236l0.08,0.044L109.032,57.236"/>
						<path id="Fill-109_1_" fill="#FFFFFF" d="M107.583,56.184l0.035,0.03L107.583,56.184"/>
						<path id="Fill-110_1_" fill="#FFFFFF" d="M109.382,57.414l0.076,0.032L109.382,57.414"/>
						<path id="Fill-111_1_" fill="#FFFFFF" d="M109.706,57.539l0.068,0.021L109.706,57.539"/>
						<path id="Fill-112_1_" fill="#FFFFFF" d="M109.548,57.483l0.072,0.027L109.548,57.483"/>
						<path id="Fill-113_1_" fill="#FFFFFF" d="M108.462,56.873l0.084,0.057L108.462,56.873"/>
						<path id="Fill-114_1_" fill="#FFFFFF" d="M107.839,56.397l0.055,0.044L107.839,56.397"/>
						<path id="Fill-115_1_" fill="#FFFFFF" d="M108.052,56.569l0.076,0.059L108.052,56.569"/>
						<path id="Fill-116_1_" fill="#FFFFFF" d="M84.459,10.862l-0.061-0.008L84.459,10.862"/>
						<path id="Fill-117_1_" fill="#FFFFFF" d="M109.861,57.581l0.062,0.014L109.861,57.581"/>
						<path id="Fill-118_1_" fill="#FFFFFF" d="M108.657,57.006l0.084,0.055L108.657,57.006"/>
						<path id="Fill-119_1_" fill="#FFFFFF" d="M108.849,57.127l0.082,0.05L108.849,57.127"/>
						<path id="Fill-120_1_" fill="#FFFFFF" d="M111.251,55.779c-0.004-0.216-0.021-0.451-0.049-0.701
							C111.23,55.328,111.247,55.563,111.251,55.779"/>
						<path id="Fill-121_1_" fill="#FFFFFF" d="M110.2,57.624l-0.053-0.002L110.2,57.624"/>
						<path id="Fill-122_1_" fill="#FFFFFF" d="M111.2,56.574c-0.08,0.456-0.254,0.772-0.525,0.933l-0.002,0.002
							C110.947,57.348,111.12,57.031,111.2,56.574"/>
						<path id="Fill-123_1_" fill="#FFFFFF" d="M106.443,55.122l-0.109-0.111L106.443,55.122"/>
						<path id="Fill-124_1_" fill="#FFFFFF" d="M110.527,57.573l0.037-0.012L110.527,57.573"/>
						<path id="Fill-125_1_" fill="#FFFFFF" d="M110.402,57.606l0.049-0.01L110.402,57.606"/>
						<path id="Fill-126_1_" fill="#FFFFFF" d="M110.273,57.622l0.057-0.003L110.273,57.622"/>
						<path id="Fill-127_1_" fill="#FFFFFF" d="M111.2,56.574c0.02-0.114,0.035-0.239,0.043-0.371
							C111.236,56.334,111.22,56.459,111.2,56.574"/>
						<path id="Fill-128_1_" fill="#FFFFFF" d="M110.007,57.609l0.059,0.008L110.007,57.609"/>
						<path id="Fill-129_1_" fill="#FFFFFF" d="M-0.108,0.516"/>
						<path id="Fill-130_1_" fill="#FFFFFF" d="M108.259,56.727l0.084,0.061L108.259,56.727"/>
						<path id="Fill-131_1_" fill="#FFFFFF" d="M102.298,50.291l0.127,0.166L102.298,50.291"/>
						<path id="Fill-132_1_" fill="#FFFFFF" d="M88.027,13.353l0.098,0.099L88.027,13.353"/>
						<path id="Fill-133_1_" fill="#FFFFFF" d="M83.213,12.473c0.015-0.774,0.203-1.294,0.581-1.512V10.96
							C83.416,11.179,83.228,11.699,83.213,12.473"/>
						<path id="Fill-134_1_" fill="#FFFFFF" d="M84.264,10.846l0.055,0.002L84.264,10.846"/>
						<path id="Fill-135_1_" fill="#FFFFFF" d="M102.923,51.093l0.104,0.132L102.923,51.093"/>
						<path id="Fill-136_1_" fill="#FFFFFF" d="M103.247,51.5l0.076,0.096L103.247,51.5"/>
						<path id="Fill-137_1_" fill="#FFFFFF" d="M102.611,50.695l0.119,0.151L102.611,50.695"/>
						<path id="Fill-138_1_" fill="#FFFFFF" d="M84.068,10.864l-0.054,0.01L84.068,10.864"/>
						<path id="Fill-139_1_" fill="#FFFFFF" d="M84.195,10.848l-0.059,0.004L84.195,10.848"/>
						<path id="Fill-140_1_" fill="#FFFFFF" d="M83.796,10.959l0.007-0.003L83.796,10.959L83.796,10.959"/>
						<path id="Fill-141_1_" fill="#FFFFFF" d="M83.214,12.7c0.004,0.214,0.021,0.444,0.049,0.691
							C83.236,13.144,83.218,12.914,83.214,12.7"/>
						<path id="Fill-142_1_" fill="#FFFFFF" d="M83.944,10.896L83.9,10.91L83.944,10.896"/>
						<path id="Fill-143_1_" fill="#FFFFFF" d="M106.829,55.498l0.1,0.094L106.829,55.498"/>
						<path id="Fill-144_1_" fill="#FFFFFF" d="M105.822,54.484l0.117,0.12L105.822,54.484"/>
						<path id="Fill-145_1_" fill="#FFFFFF" d="M105.562,54.204l0.115,0.125L105.562,54.204"/>
						<path id="Fill-146_1_" fill="#FFFFFF" d="M105.296,53.914l0.117,0.129L105.296,53.914"/>
						<path id="Fill-147_1_" fill="#FFFFFF" d="M106.581,55.258l0.107,0.105L106.581,55.258"/>
						<path id="Fill-148_1_" fill="#FFFFFF" d="M107.316,55.948l0.078,0.07L107.316,55.948"/>
						<path id="Fill-149_1_" fill="#FFFFFF" d="M107.072,55.727l0.092,0.084L107.072,55.727"/>
						<path id="Fill-150_1_" fill="#FFFFFF" d="M104.751,53.302l0.117,0.132L104.751,53.302"/>
						<path id="Fill-151_1_" fill="#FFFFFF" d="M105.025,53.612l0.119,0.133L105.025,53.612"/>
						<path id="Fill-152_1_" fill="#FFFFFF" d="M103.907,52.309l0.088,0.104L103.907,52.309"/>
						<path id="Fill-153_1_" fill="#FFFFFF" d="M104.191,52.65l0.111,0.129L104.191,52.65"/>
						<path id="Fill-154_1_" fill="#FFFFFF" d="M103.618,51.959l0.006,0.006L103.618,51.959"/>
						<path id="Fill-155_1_" fill="#FFFFFF" d="M104.472,52.981l0.117,0.133L104.472,52.981"/>
						<path id="Fill-156_1_" fill="#FFFFFF" d="M106.079,54.752l0.113,0.116L106.079,54.752"/>
						<path id="Fill-157_1_" fill="#3E466E" d="M77.305,14.853c-0.021-0.622-0.542-1.11-1.165-1.091
							c-0.622,0.021-1.11,0.543-1.089,1.165c0.021,0.622,0.541,1.11,1.164,1.09C76.837,15.997,77.324,15.475,77.305,14.853"/>
						<path id="Fill-158_1_" fill="#3E466E" d="M77.994,17.698c-0.012-0.361-0.314-0.646-0.677-0.634s-0.646,0.315-0.633,0.677
							c0.012,0.362,0.314,0.645,0.677,0.633C77.723,18.362,78.007,18.059,77.994,17.698"/>
						<path id="Fill-159_1_" fill="#3E466E" d="M91.08,9.022c0.362-0.012,0.646-0.314,0.635-0.677
							c-0.013-0.362-0.316-0.646-0.679-0.634c-0.36,0.012-0.645,0.314-0.633,0.678C90.415,8.75,90.718,9.034,91.08,9.022"/>
						<path id="Fill-160_1_" fill="#3E466E" d="M99.726,57.956c-0.361,0.012-0.646,0.314-0.633,0.676
							c0.012,0.363,0.314,0.646,0.678,0.634c0.361-0.012,0.645-0.314,0.633-0.676C100.392,58.227,100.087,57.944,99.726,57.956"/>
						<path id="Fill-161_1_" fill="#3E466E" d="M117.296,57.084c-0.615,0.02-1.098,0.536-1.078,1.153
							c0.021,0.616,0.537,1.1,1.152,1.08c0.619-0.021,1.102-0.538,1.082-1.154C118.431,57.546,117.915,57.063,117.296,57.084"/>
						<path id="Fill-162_1_" fill="#3E466E" d="M116.486,55.914c0.363-0.012,0.646-0.314,0.635-0.677s-0.314-0.646-0.678-0.633
							c-0.361,0.012-0.645,0.314-0.633,0.676C115.822,55.643,116.124,55.926,116.486,55.914"/>
						<path id="Fill-163_1_" fill="#FFFFFF" d="M108.825,35.336l-12.23,7.062l-3.851-2.223l16.081-9.285v-3.307l-12.23-7.062
							l-12.231,7.062v6.372l12.231-7.062l3.85,2.224l-16.081,9.285v3.306l12.231,7.062l12.23-7.062V35.336"/>
					</g>
				</g>
			</g>
		</g>
	</g>
</g>
</svg>
